# xmcd
#
# Track frame offsets:
#	150
#	15806
#	35698
#	49379
#	67590
#	80296
#	102369
#	114994
#	129824
#	145038
#	164961
#
# Disc length: 2452 seconds
#
# Revision: 1
# Processed by: cddbd v1.5.2PL0 Copyright (c) Steve Scherf et al.
# Submitted via: EZCDAudioConverter 3.1.7.1
#
DISCID=8409920b
DTITLE=TJ McFarland - Rosenbum's Gin
DYEAR=2005
DGENRE=Country
TTITLE0=You Loved Me When
TTITLE1=Bullhorns on a Cadillac
TTITLE2=Emmy
TTITLE3=Wherever's After Crazy
TTITLE4=Ride This Train
TTITLE5=Rosenbum's Gin
TTITLE6=They
TTITLE7=Sweet Little Melody Jane
TTITLE8=Getaway
TTITLE9=Marilyn's Eyes
TTITLE10=Out of the Blue
EXTD=
EXTT0=
EXTT1=
EXTT2=
EXTT3=
EXTT4=
EXTT5=
EXTT6=
EXTT7=
EXTT8=
EXTT9=
EXTT10=
PLAYORDER=
